<svg width="28" height="28" viewBox="0 0 28 28" fill="none" xmlns="http://www.w3.org/2000/svg">
<path d="M10.5002 1.16667V9.91667C10.5002 12.1718 8.67316 14 6.41683 14C4.1605 14 2.3335 12.1718 2.3335 9.91667V2.91667C2.3335 1.3055 3.639 0 5.25016 0C6.86133 0 8.16683 1.3055 8.16683 2.91667V8.16667C8.16683 9.13267 7.38283 9.91667 6.41683 9.91667C5.45083 9.91667 4.66683 9.13267 4.66683 8.16667V3.5H5.8335V8.16667C5.8335 8.4875 6.096 8.75 6.41683 8.75C6.73766 8.75 7.00016 8.4875 7.00016 8.16667V2.91667C7.00016 1.95183 6.215 1.16667 5.25016 1.16667C4.28533 1.16667 3.50016 1.95183 3.50016 2.91667V9.91667C3.50016 11.5243 4.808 12.8333 6.41683 12.8333C8.02566 12.8333 9.3335 11.5243 9.3335 9.91667V1.16667H10.5002ZM12.8335 1.16667V3.5C16.6625 3.5 17.2342 6.937 16.3335 10.5C16.3335 10.5 23.3335 8.575 23.3335 13.3665V25.6667H5.8335V16.3042C4.99933 16.2283 4.21183 15.9903 3.50016 15.6252V28H25.6668V12.383C25.6668 10.2328 19.1533 1.16667 12.8335 1.16667ZM19.8335 16.3333H9.3335V17.5H19.8335V16.3333ZM19.8335 19.8333H9.3335V18.6667H19.8335V19.8333ZM19.8335 22.1667H9.3335V21H19.8335V22.1667Z" fill="white"/>
</svg>
