<svg width="28" height="28" viewBox="0 0 28 28" fill="none" xmlns="http://www.w3.org/2000/svg">
<g clip-path="url(#clip0_278_2093)">
<path d="M28 15.8853V12.1147L24.6528 10.9247C24.4218 10.1232 24.1022 9.359 23.7067 8.64383L25.2327 5.43433L22.5668 2.7685L19.3573 4.29333C18.6422 3.89783 17.8768 3.57817 17.0765 3.34717L15.8853 0H12.1147L10.9235 3.34717C10.1232 3.57817 9.35783 3.89667 8.64267 4.29333L5.43317 2.76733L2.76733 5.43317L4.29333 8.64383C3.89783 9.359 3.577 10.1232 3.34717 10.9247L0 12.1147V15.8853L3.34717 17.0753C3.577 17.8768 3.89783 18.641 4.29333 19.3562L2.76733 22.5657L5.43317 25.2327L8.64267 23.7067C9.35783 24.1022 10.1232 24.4218 10.9235 24.6528L12.1147 28H15.8853L17.0765 24.6528C17.878 24.4218 18.6422 24.1022 19.3573 23.7067L22.5668 25.2327L25.2327 22.5657L23.7067 19.3562C24.1022 18.641 24.4218 17.8768 24.6528 17.0753L28 15.8853ZM14 18.6667C11.4228 18.6667 9.33333 16.5772 9.33333 14C9.33333 11.4228 11.4228 9.33333 14 9.33333C16.5772 9.33333 18.6667 11.4228 18.6667 14C18.6667 16.5772 16.5772 18.6667 14 18.6667Z" fill="white"/>
</g>
<defs>
<clipPath id="clip0_278_2093">
<rect width="28" height="28" fill="white"/>
</clipPath>
</defs>
</svg>
