<svg width="43" height="43" viewBox="0 0 43 43" fill="none" xmlns="http://www.w3.org/2000/svg">
<path d="M30.4583 1.79167C30.4583 0.802667 29.6575 0 28.6667 0C27.6759 0 26.875 0.802667 26.875 1.79167V5.375C26.875 6.364 27.6759 7.16667 28.6667 7.16667C29.6575 7.16667 30.4583 6.364 30.4583 5.375V1.79167ZM8.95833 5.375C8.95833 6.364 8.15746 7.16667 7.16667 7.16667C6.17587 7.16667 5.375 6.364 5.375 5.375V1.79167C5.375 0.802667 6.17587 0 7.16667 0C8.15746 0 8.95833 0.802667 8.95833 1.79167V5.375ZM32.25 14.3333V32.25H3.58333V14.3333H32.25ZM35.8333 3.58333H32.25V5.375C32.25 7.35121 30.6429 8.95833 28.6667 8.95833C26.6905 8.95833 25.0833 7.35121 25.0833 5.375V3.58333H10.75V5.375C10.75 7.35121 9.14287 8.95833 7.16667 8.95833C5.19046 8.95833 3.58333 7.35121 3.58333 5.375V3.58333H0V35.8333H35.8333V3.58333ZM14.9676 28.6667C12.6062 28.6667 11.0402 27.3032 11.0832 24.716H13.3139C13.3533 25.8627 13.8155 26.6994 14.9389 26.6994C15.6825 26.6994 16.4296 26.2569 16.4296 25.2679C16.4296 24.0137 15.5606 23.9223 14.1004 23.9223V22.1719C15.127 22.2615 16.2432 22.1145 16.2432 21.0825C16.2432 20.2673 15.5821 19.8947 14.9694 19.8947C13.9392 19.8947 13.5486 20.6508 13.5683 21.6917H11.318C11.4111 19.1816 12.934 17.9167 14.9532 17.9167C16.6876 17.9167 18.481 19.015 18.481 20.855C18.481 21.8082 18.0618 22.5481 17.338 22.91C18.284 23.2737 18.8555 24.1302 18.8555 25.2267C18.8537 27.3785 17.0764 28.6667 14.9676 28.6667ZM24.7501 28.6667H22.4102V21.9515H19.8785V20.1115C21.4857 20.1545 22.6108 19.694 22.8473 18.1173H24.7501V28.6667ZM43 8.95833V43H3.58333V39.4167H39.4167V8.95833H43Z" fill="white"/>
</svg>
