<svg width="43" height="43" viewBox="0 0 43 43" fill="none" xmlns="http://www.w3.org/2000/svg">
<g clip-path="url(#clip0_689_1068)">
<path d="M43 5.4735L32.25 7.66113L35.3245 10.7213L25.7373 20.321L20.3605 14.9425L7.21683 27.9177L9.74308 30.4583L20.3533 20.0057L25.7122 25.3682L37.8615 13.2529L40.8482 16.2271L43 5.4735ZM13.0971 17.0781L7.21683 11.2749L9.74308 8.73433L15.652 14.5555L13.0971 17.0781ZM40.85 22.9673L43 33.7191L32.25 31.5315L35.3245 28.4713L31.5082 24.6497L34.0363 22.127L37.8633 25.9415L40.85 22.9673ZM43 37.625V41.2083H0V1.79163H3.58333V37.625H43Z" fill="#F88703"/>
</g>
<defs>
<clipPath id="clip0_689_1068">
<rect width="43" height="43" fill="white"/>
</clipPath>
</defs>
</svg>
