<svg width="43" height="43" viewBox="0 0 43 43" fill="none" xmlns="http://www.w3.org/2000/svg">
<path d="M23.7396 12.5417C23.7396 13.7779 22.7362 14.7812 21.5 14.7812C20.2638 14.7812 19.2604 13.7779 19.2604 12.5417C19.2604 11.3054 20.2638 10.3021 21.5 10.3021C22.7362 10.3021 23.7396 11.3054 23.7396 12.5417ZM43 21.5C43 33.3734 33.3734 43 21.5 43C9.62663 43 0 33.3734 0 21.5C0 9.62663 9.62663 0 21.5 0C33.3734 0 43 9.62663 43 21.5ZM39.4167 21.5C39.4167 11.6207 31.3792 3.58333 21.5 3.58333C11.6207 3.58333 3.58333 11.6207 3.58333 21.5C3.58333 31.3792 11.6207 39.4167 21.5 39.4167C31.3792 39.4167 39.4167 31.3792 39.4167 21.5ZM16.125 17.9167V21.5H19.7083V32.25H23.2917V17.9167H16.125Z" fill="white"/>
</svg>
