<svg width="43" height="43" viewBox="0 0 43 43" fill="none" xmlns="http://www.w3.org/2000/svg">
<path d="M32.25 12.5417H10.75V14.3333H32.25V12.5417ZM16.125 16.125H10.75V17.9167H16.125V16.125ZM16.125 19.7083H10.75V21.5H16.125V19.7083ZM32.25 16.125H26.875V17.9167H32.25V16.125ZM32.25 19.7083H26.875V21.5H32.25V19.7083ZM32.25 23.2917H10.75V25.0833H32.25V23.2917ZM21.5 26.875H10.75V28.6667H21.5V26.875ZM21.5 30.4583H10.75V32.25H21.5V30.4583ZM21.5 34.0417H10.75V35.8333H21.5V34.0417ZM25.0834 16.125H17.9167V21.5H25.0834V16.125ZM21.801 10.6998L20.9769 7.22221H21.8817L22.3117 9.632L22.7954 7.22221H23.6769L24.1033 9.58721L24.5495 7.22221H25.413L24.5154 10.6998H23.6196L23.1932 8.39933L22.7076 10.6998H21.801ZM20.7637 9.99033H19.3662V9.26292H20.6167V8.55879H19.3662V7.93171H20.692V7.22221H18.5151V10.6998H20.7637V9.99033ZM26.5991 10.0405C26.3322 10.0405 26.0186 9.96346 25.7642 9.83267L25.7212 9.80937L25.5456 10.5225L25.5725 10.5368C25.7552 10.6407 26.1422 10.75 26.5525 10.75C27.5935 10.75 27.9644 10.1623 27.9644 9.65708C27.9644 9.16975 27.6759 8.8365 27.056 8.60717C26.6009 8.43517 26.4504 8.34737 26.4504 8.16463C26.4504 7.98904 26.6296 7.87617 26.9055 7.87617C27.1492 7.87617 27.3821 7.92992 27.6007 8.03383L27.6419 8.05354L27.8336 7.35479L27.8067 7.34225C27.5469 7.22579 27.2495 7.16667 26.9198 7.16667C26.1279 7.16667 25.5958 7.59487 25.5958 8.22913C25.5958 8.69854 25.9201 9.04971 26.5543 9.27008C26.961 9.41521 27.099 9.52808 27.099 9.71262C27.099 9.92225 26.9162 10.0405 26.5991 10.0405ZM15.8205 8.32229L17.0585 10.6998H17.9275V7.22221H17.1427V9.3525L15.996 7.22221H15.0357V10.6998H15.8205V8.32229ZM7.16671 39.4167V3.58333H35.8334V24.2645C35.8334 31.6229 25.0834 28.6667 25.0834 28.6667C25.0834 28.6667 27.8031 39.4167 20.357 39.4167H7.16671ZM39.4167 25.7749V0H3.58337V43H21.8387C27.5057 43 39.4167 30.0588 39.4167 25.7749Z" fill="white"/>
</svg>
