<svg width="43" height="43" viewBox="0 0 43 43" fill="none" xmlns="http://www.w3.org/2000/svg">
<path d="M37.0284 25.0834C40.2193 25.0834 43 23.8812 43 22.3959C43 20.9106 40.2193 19.7084 37.0284 19.7084C33.8374 19.7084 31.0567 20.9106 31.0567 22.3959C31.0567 23.8812 33.8356 25.0834 37.0284 25.0834ZM37.1395 22.6825C36.7829 22.575 35.6882 22.4837 35.6882 21.8763C35.6882 21.5377 36.0877 21.2349 36.8331 21.1668V20.9016H37.2165V21.1543C37.496 21.1614 37.8078 21.1919 38.1535 21.2617L38.0138 21.672C37.7504 21.6111 37.4566 21.5538 37.1681 21.5538L37.0821 21.5556C36.507 21.5789 36.4604 21.8978 36.8582 22.034C37.5103 22.2346 38.3703 22.3833 38.3703 22.9173C38.3703 23.3437 37.8525 23.573 37.2147 23.6285V23.8901H36.8313V23.6411C36.4371 23.6375 36.0233 23.573 35.681 23.4583L35.8566 23.048C36.1487 23.1233 36.5142 23.1985 36.8456 23.1985L37.0947 23.1806C37.5372 23.1197 37.625 22.8241 37.1395 22.6825ZM37.0284 32.25C39.2877 32.25 41.633 31.6713 43 30.5766V31.3542C43 32.8395 40.2193 34.0417 37.0284 34.0417C33.8374 34.0417 31.0567 32.8395 31.0567 31.3542V30.5766C32.4238 31.6713 34.7673 32.25 37.0284 32.25ZM37.0284 26.2784C39.2877 26.2784 41.633 25.6997 43 24.605V25.3826C43 26.8679 40.2193 28.0701 37.0284 28.0701C33.8374 28.0701 31.0567 26.8679 31.0567 25.3826V24.605C32.4238 25.6997 34.7673 26.2784 37.0284 26.2784ZM37.0284 29.2633C39.2877 29.2633 41.633 28.6846 43 27.5881V28.3675C43 29.851 40.2193 31.055 37.0284 31.055C33.8374 31.055 31.0567 29.851 31.0567 28.3675V27.5881C32.4238 28.6846 34.7673 29.2633 37.0284 29.2633ZM15.2292 22.3959C15.2292 24.8684 17.2358 26.875 19.7083 26.875C22.1808 26.875 24.1875 24.8684 24.1875 22.3959C24.1875 19.9234 22.1808 17.9167 19.7083 17.9167C17.2358 17.9167 15.2292 19.9234 15.2292 22.3959ZM21.027 20.3534L20.8657 21.0898C20.5217 20.9697 20.1401 20.8604 19.771 20.8819C19.1045 20.9213 19.0454 21.4983 19.5112 21.7401C20.2781 22.1003 21.276 22.3672 21.276 23.3275C21.2778 24.0962 20.6776 24.5083 19.9341 24.6104V25.0834H19.4844V24.6355C19.0203 24.6283 18.542 24.5172 18.1424 24.3112L18.3449 23.5748C18.7731 23.7396 19.3446 23.917 19.7907 23.8167C20.305 23.7002 20.4107 23.1717 19.8409 22.9155C19.4235 22.722 18.1496 22.5553 18.1496 21.4624C18.1496 20.8515 18.6172 20.305 19.4862 20.185V19.7084H19.9359V20.1635C20.2566 20.1724 20.6203 20.2297 21.027 20.3534ZM32.25 10.75H1.79167V28.6667H0V8.95837H32.25V10.75ZM35.8333 12.5417V17.6193C34.5523 17.725 33.3232 18.0027 32.25 18.4399V16.125H7.16667V28.6667H28.6667V32.25H3.58333V12.5417H35.8333Z" fill="white"/>
</svg>
