<svg width="43" height="43" viewBox="0 0 43 43" fill="none" xmlns="http://www.w3.org/2000/svg">
<path d="M25.0833 33.3196V34.0416H7.16667V33.2945C7.1595 31.3022 7.2455 30.1645 9.53883 29.6341C12.0525 29.0536 14.5322 28.5358 13.3407 26.3357C9.80579 19.8194 12.332 16.125 16.125 16.125C19.8463 16.125 22.4335 19.6814 18.9128 26.3357C17.7536 28.5215 20.1455 29.0411 22.713 29.6341C25.0135 30.1663 25.0923 31.3111 25.0833 33.3196ZM35.8333 16.125H28.6667V19.7083H35.8333V16.125ZM35.8333 23.2916H28.6667V26.875H35.8333V23.2916ZM35.8333 30.4583H28.6667V34.0416H35.8333V30.4583ZM28.6667 8.95829V12.5416H39.4167V37.625H3.58333V12.5416H14.3333V8.95829H0V41.2083H43V8.95829H28.6667ZM17.9167 1.79163V12.5416H25.0833V1.79163H17.9167ZM21.5 8.95829C20.511 8.95829 19.7083 8.15563 19.7083 7.16663C19.7083 6.17763 20.511 5.37496 21.5 5.37496C22.489 5.37496 23.2917 6.17763 23.2917 7.16663C23.2917 8.15563 22.489 8.95829 21.5 8.95829Z" fill="white"/>
</svg>
