<svg width="43" height="43" viewBox="0 0 43 43" fill="none" xmlns="http://www.w3.org/2000/svg">
<path d="M35.8709 0C32.9218 0 30.5317 2.39188 30.5317 5.33917C30.5317 6.50733 30.908 7.5895 31.5458 8.46742L25.6781 14.3333H29.5195L33.6564 10.1964C34.3301 10.5063 35.0808 10.6783 35.8709 10.6783C38.8182 10.6783 41.2083 8.28825 41.2083 5.33917C41.2083 2.39008 38.8182 0 35.8709 0ZM35.8709 4.18892C34.9518 4.18892 34.2065 3.66575 34.2065 3.01896C34.2065 2.37217 34.9518 1.849 35.8709 1.849C36.7882 1.849 37.5336 2.37217 37.5336 3.01896C37.5336 3.66575 36.7865 4.18892 35.8709 4.18892ZM10.75 23.2917H28.6666V25.0833H10.75V23.2917ZM28.6666 19.7083H10.75V17.9167H28.6666V19.7083ZM23.2916 12.5417V14.3333H10.75V12.5417H23.2916ZM37.625 14.0843V25.7731C37.625 30.0588 25.714 43 20.0469 43H1.79163V0H28.7652C27.9786 1.04633 27.391 2.25213 27.1258 3.58333H5.37496V39.4167H18.5652C26.0114 39.4167 23.2916 28.6667 23.2916 28.6667C23.2916 28.6667 34.0416 31.6229 34.0416 24.2645V13.9696C35.2385 14.3548 36.4245 14.3244 37.625 14.0843Z" fill="white"/>
</svg>
