<svg width="43" height="43" viewBox="0 0 43 43" fill="none" xmlns="http://www.w3.org/2000/svg">
<g clip-path="url(#clip0_689_1120)">
<path d="M32.2446 32.25H30.4565C30.4565 29.4693 30.564 29.0698 28.8799 28.6792C26.3035 28.0844 23.8686 27.5236 22.9799 25.5814C22.6574 24.8719 22.4406 23.7038 23.2576 22.1647C25.0869 18.7086 25.5456 15.7452 24.5154 14.0341C23.3114 12.0364 19.6653 12.0275 18.4506 14.0646C17.4186 15.7989 17.8844 18.7462 19.728 22.1486C20.5612 23.6823 20.3515 24.854 20.029 25.5671C19.1511 27.5182 16.7395 28.0754 14.1846 28.6631C12.4252 29.0698 12.5363 29.4425 12.5363 32.25H10.7536L10.75 31.1338C10.75 28.8781 10.9292 27.5773 13.5952 26.961C16.6087 26.264 19.5865 25.6423 18.155 23.0032C13.9159 15.1826 16.9438 10.75 21.4964 10.75C25.9613 10.75 29.0698 15.0195 24.8415 23.0032C23.4529 25.6262 26.3178 26.2497 29.4012 26.961C32.0708 27.5773 32.2482 28.8817 32.2482 31.141L32.2446 32.25ZM40.8625 28.2833C38.5531 27.7493 36.4031 27.2817 37.444 25.3145C40.6153 19.3267 38.2861 16.125 34.9357 16.125C32.6693 16.125 30.908 17.5888 30.908 20.2906C30.908 22.5642 31.9365 24.1875 32.5277 25.5312H34.4054C34.1008 24.1875 31.7788 20.941 33.033 18.8376C33.7711 17.5977 36.086 17.596 36.8205 18.8161C37.5014 19.9466 37.1448 22.0626 35.8638 24.4795C35.1686 25.7928 35.3621 26.8105 35.647 27.4322C36.1935 28.6255 37.3975 29.2006 38.7591 29.5965C41.4592 30.3867 41.2101 29.6718 41.2101 32.2482H42.9964L43 31.4187C43 29.7255 42.8674 28.7455 40.8625 28.2833ZM0.00358333 32.25H1.78988C1.78988 29.6736 1.54083 30.3885 4.24088 29.5983C5.60433 29.2024 6.80833 28.6273 7.353 27.434C7.63788 26.8105 7.83138 25.7946 7.13621 24.4813C5.85517 22.0644 5.49862 19.9484 6.17946 18.8179C6.91404 17.596 9.22888 17.5978 9.96704 18.8394C11.2212 20.9446 8.89921 24.1893 8.59462 25.533H10.4723C11.0635 24.1893 12.092 22.566 12.092 20.2924C12.0938 17.5888 10.3325 16.125 8.06608 16.125C4.71567 16.125 2.3865 19.3267 5.55775 25.3145C6.59871 27.2835 4.44871 27.7493 2.13925 28.2833C0.132583 28.7455 0 29.7255 0 31.4205L0.00358333 32.25Z" fill="white"/>
</g>
<defs>
<clipPath id="clip0_689_1120">
<rect width="43" height="43" fill="white"/>
</clipPath>
</defs>
</svg>
