<svg width="52" height="51" viewBox="0 0 52 51" fill="none" xmlns="http://www.w3.org/2000/svg">
<g filter="url(#filter0_d_689_539)">
<path fill-rule="evenodd" clip-rule="evenodd" d="M16.224 43H16.2219C15.6455 43 15.1667 42.613 15.1667 42.1275V41.2083C12.7747 41.2083 10.8334 39.603 10.8334 37.625V14.3333C10.8334 12.3553 12.7747 10.75 15.1667 10.75H19.5V1.79167C19.5 0.802667 20.4707 0 21.6667 0H30.3334C31.5315 0 32.5 0.804458 32.5 1.79167V10.75H36.8334C39.2275 10.75 41.1667 12.3553 41.1667 14.3333V37.625C41.1667 39.603 39.2275 41.2083 36.8334 41.2083V42.0827C36.8334 42.5897 36.3394 43 35.724 43H35.7219C35.1477 43 34.6667 42.6166 34.6667 42.1275V41.2083H17.3334V42.0827C17.3334 42.5897 16.8372 43 16.224 43ZM15.1667 37.625H36.8334V14.3333H15.1667V37.625ZM19.5174 19.7083H18.4167C17.8187 19.7083 17.3334 19.307 17.3334 18.8125C17.3334 18.318 17.8187 17.9167 18.4167 17.9167H33.5834C34.1835 17.9167 34.6667 18.318 34.6667 18.8125C34.6667 19.307 34.1835 19.7083 33.5834 19.7083H23.764C24.3317 20.253 24.7672 20.8998 25.0164 21.5054L27.8092 21.5107L35.4532 27.8568L29.315 32.9147L21.6689 26.5668L21.6754 23.9223C20.3602 23.1788 19.3614 21.5681 19.5174 19.7083ZM27.4084 25.5689L31.3539 28.8315L30.5869 29.464L26.6435 26.2031L27.4084 25.5689ZM28.8904 28.6953L28.1234 29.3278L25.493 27.1527L26.26 26.5203L28.8904 28.6953ZM28.5567 24.6193L32.5022 27.8819L31.7374 28.5144L27.7919 25.2535L28.5567 24.6193ZM25.1507 23.3185C24.9514 23.8095 24.4292 24.1463 23.8377 24.2842C23.9287 25.0314 25.0315 25.3592 25.6794 24.8271C26.2882 24.329 25.9805 23.4744 25.1507 23.3185ZM20.6072 19.7083C20.4924 20.9392 20.9452 22.0142 21.6775 22.7219L21.6819 21.5L23.855 21.5036C23.4455 20.726 22.8454 20.1168 22.1997 19.7083H20.6072ZM30.3334 10.75V4.47917C30.3334 3.98467 29.8502 3.58333 29.25 3.58333H22.75C22.152 3.58333 21.6667 3.98467 21.6667 4.47917V10.75H30.3334Z" fill="white"/>
</g>
<defs>
<filter id="filter0_d_689_539" x="-4" y="0" width="60" height="51" filterUnits="userSpaceOnUse" color-interpolation-filters="sRGB">
<feFlood flood-opacity="0" result="BackgroundImageFix"/>
<feColorMatrix in="SourceAlpha" type="matrix" values="0 0 0 0 0 0 0 0 0 0 0 0 0 0 0 0 0 0 127 0" result="hardAlpha"/>
<feOffset dy="4"/>
<feGaussianBlur stdDeviation="2"/>
<feComposite in2="hardAlpha" operator="out"/>
<feColorMatrix type="matrix" values="0 0 0 0 0 0 0 0 0 0 0 0 0 0 0 0 0 0 0.25 0"/>
<feBlend mode="normal" in2="BackgroundImageFix" result="effect1_dropShadow_689_539"/>
<feBlend mode="normal" in="SourceGraphic" in2="effect1_dropShadow_689_539" result="shape"/>
</filter>
</defs>
</svg>
