<svg width="28" height="28" viewBox="0 0 28 28" fill="none" xmlns="http://www.w3.org/2000/svg">
<path d="M23.773 12.929C23.703 15.1795 21.1725 16.576 13.9625 16.576C6.73734 16.576 4.2115 15.1725 4.152 12.9138C5.91134 12.9138 9.26084 10.6295 13.9625 10.6295C18.544 10.6283 22.2972 12.929 23.773 12.929ZM13.9637 17.7007C11.558 17.7007 9.60034 17.5478 8.03934 17.2375C8.11167 17.885 8.5865 21.1132 10.8498 21.1132C12.8577 21.1132 12.8017 19.5778 14.0243 19.5778C15.2458 19.5778 15.3882 21.1132 17.3517 21.1132C19.79 21.1132 20.2217 17.5397 20.2613 17.1593C18.6432 17.5222 16.5642 17.7007 13.9637 17.7007ZM21.4362 16.8362C21.3895 19.369 20.5997 22.4 18.7762 24.346C17.5535 25.6515 16.003 26.3142 14.169 26.3142C12.3315 26.3142 10.788 25.6923 9.58284 24.4685C7.6625 22.5167 6.89717 19.3993 6.7875 16.9307C6.17734 16.7463 5.60917 16.5258 5.05617 16.198C5.0375 19.082 5.8775 23.1303 8.34734 25.641C9.8885 27.2055 11.8473 28 14.169 28C16.4697 28 18.4997 27.1308 20.0408 25.4882C22.527 22.8363 23.2608 18.8627 23.1453 16.0253C22.6098 16.3847 22.044 16.6332 21.4362 16.8362ZM14.1597 4.0215L13.7945 4.74833L12.9767 4.865L13.5682 5.43083L13.4293 6.23L14.1597 5.852L14.8912 6.23L14.7512 5.43083L15.3427 4.865L14.526 4.74833L14.1597 4.0215ZM22.5725 3.78117C22.5725 3.78117 19.6127 2.98083 13.9998 0C8.38584 2.98083 5.42717 3.78117 5.42717 3.78117C5.42717 3.78117 3.91634 6.58117 1.1665 9.63317L3.81017 11.8592C5.59867 11.6667 9.2235 9.43017 13.9998 9.43017C18.7762 9.43017 22.401 11.6667 24.1895 11.8603L26.8332 9.63317C24.0833 6.58117 22.5725 3.78117 22.5725 3.78117ZM15.17 7.53083C14.5563 7.68367 14.4642 7.75017 14.1492 7.99983C13.8353 7.75017 13.742 7.68367 13.1283 7.53083C12.2755 7.31733 11.7855 6.7655 11.7855 6.01533C11.7855 5.5965 11.957 5.20917 12.1565 4.67833C12.3805 4.07983 12.2533 3.89083 12.0177 3.64933L11.8182 3.444L12.9697 2.4885C13.084 2.60283 13.2438 2.81283 13.5367 2.81283C13.826 2.81283 14.022 2.60867 14.1527 2.49667C14.2717 2.60167 14.4653 2.81283 14.7628 2.81283C15.0522 2.81283 15.2073 2.61333 15.3345 2.485L16.4813 3.44517L16.2807 3.6505C16.045 3.892 15.9178 4.081 16.1418 4.6795C16.3402 5.21033 16.5128 5.5965 16.5128 6.0165C16.5128 6.76433 16.0228 7.31733 15.17 7.53083Z" fill="white"/>
</svg>
