<svg width="28" height="28" viewBox="0 0 28 28" fill="none" xmlns="http://www.w3.org/2000/svg">
<path d="M27.9942 28H25.6667C25.6667 24.3787 25.8055 23.8583 23.6122 23.3497C20.2557 22.575 17.0858 21.8435 15.9308 19.3153C15.5097 18.3925 15.2297 16.8712 16.2925 14.8657C18.6748 10.3658 19.2722 6.5065 17.9293 4.277C16.3648 1.6765 11.6142 1.6625 10.0357 4.31667C8.68933 6.5765 9.29483 10.4148 11.697 14.8458C12.782 16.8432 12.5102 18.3692 12.0913 19.2967C10.9457 21.8377 7.80383 22.5622 4.47883 23.3287C2.1875 23.8583 2.33333 24.3437 2.33333 28H0.00583333L0 26.5522C0 23.6122 0.232167 21.9147 3.70767 21.112C7.6335 20.2055 11.5103 19.3935 9.646 15.9577C4.12417 5.77383 8.071 0 14 0C19.8135 0 23.8595 5.56033 18.354 15.9577C16.5445 19.3737 20.279 20.1857 24.2923 21.112C27.7678 21.9147 28 23.6122 28 26.5522L27.9942 28ZM12.2698 21L13.3315 23.3333H14.6895L15.7628 21H12.2698ZM15.764 28L14.9427 24.5H13.0585L12.2372 28H15.764Z" fill="white"/>
</svg>
